<?xml version="1.0" standalone="no"?>
<!DOCTYPE svg PUBLIC "-//W3C//DTD SVG 20010904//EN"
 "http://www.w3.org/TR/2001/REC-SVG-20010904/DTD/svg10.dtd">
<svg version="1.0" xmlns="http://www.w3.org/2000/svg"
 width="512.000000pt" height="512.000000pt" viewBox="0 0 512.000000 512.000000"
 preserveAspectRatio="xMidYMid meet">
<metadata>
Created by potrace 1.11, written by Peter Selinger 2001-2013
</metadata>
<g transform="translate(0.000000,512.000000) scale(0.100000,-0.100000)"
fill="#000000" stroke="none">
<path d="M2330 5110 c-494 -48 -950 -230 -1350 -538 -195 -150 -448 -432 -594
-662 -63 -99 -186 -351 -230 -471 -49 -134 -102 -340 -128 -499 -31 -195 -31
-565 0 -760 45 -276 116 -498 237 -745 131 -267 269 -460 485 -676 419 -420
891 -654 1495 -741 116 -17 532 -17 640 0 591 93 1045 312 1443 697 318 307
528 638 662 1045 85 256 118 449 127 730 21 712 -240 1364 -751 1876 -221 220
-412 357 -681 489 -246 121 -474 193 -740 235 -147 23 -475 34 -615 20z m2365
-1491 c113 -223 194 -490 230 -751 l6 -48 -1770 0 -1771 0 0 213 c0 156 4 228
15 270 52 199 213 346 415 380 14 2 658 5 1432 6 l1408 1 35 -71z m242 -1146
c-7 -197 -26 -329 -72 -508 -77 -300 -214 -584 -409 -845 -91 -122 -334 -365
-456 -456 -327 -244 -692 -398 -1090 -461 -163 -25 -541 -25 -695 0 -281 47
-486 112 -722 230 l-103 51 0 1078 0 1078 1777 0 1776 0 -6 -167z"/>
<path d="M3207 3509 c-107 -16 -197 -90 -236 -193 -40 -106 -18 -221 58 -308
56 -63 119 -92 214 -96 72 -4 84 -1 142 27 109 54 169 148 169 266 1 86 -14
131 -63 193 -66 83 -177 126 -284 111z m99 -185 c41 -20 74 -70 74 -114 0 -73
-76 -139 -146 -125 -20 3 -49 21 -69 41 -30 29 -35 42 -35 80 0 55 28 100 74
120 41 18 61 17 102 -2z"/>
<path d="M1767 3496 c-211 -76 -269 -348 -107 -505 123 -119 334 -104 442 32
121 153 72 369 -104 457 -50 24 -73 30 -127 30 -36 -1 -83 -7 -104 -14z"/>
<path d="M2450 3493 c-65 -23 -152 -113 -174 -181 -37 -111 -7 -238 73 -316
64 -62 115 -81 211 -81 96 0 147 19 211 81 80 78 110 205 73 316 -23 71 -109
158 -178 181 -61 21 -156 21 -216 0z m169 -171 c38 -20 71 -73 71 -112 0 -14
-8 -41 -18 -59 -20 -38 -73 -71 -112 -71 -62 0 -130 68 -130 130 0 62 68 130
130 130 14 0 41 -8 59 -18z"/>
<path d="M2370 2284 c-170 -45 -324 -170 -398 -324 -51 -106 -66 -184 -60
-303 14 -253 171 -458 420 -544 59 -21 93 -25 178 -26 124 -1 190 16 299 74
l74 40 277 -275 c249 -249 279 -276 309 -276 45 0 91 46 91 91 0 29 -28 61
-275 309 l-276 277 40 74 c54 100 74 182 74 299 -2 277 -196 521 -465 585 -79
18 -216 18 -288 -1z m296 -187 c192 -70 309 -272 274 -476 -38 -228 -252 -386
-477 -354 -225 32 -376 207 -375 434 2 254 227 449 482 418 30 -4 74 -14 96
-22z"/>
</g>
</svg>
